<mxfile host="app.diagrams.net" modified="2023-08-07T04:41:59.850Z" agent="Mozilla/5.0 (Macintosh; Intel Mac OS X 10_15_7) AppleWebKit/537.36 (KHTML, like Gecko) Chrome/115.0.0.0 Safari/537.36" version="21.5.0" etag="3cqnWmy2AVqtkRyJhzKB" type="github">
  <diagram name="Page-1" id="V2rnb_4nJ6cH7nZa8EUC">
    <mxGraphModel>
      <root>
        <mxCell id="0" />
        <mxCell id="1" parent="0" />
      </root>
    </mxGraphModel>
  </diagram>
</mxfile>
